<svg xmlns="http://www.w3.org/2000/svg" xmlns:xlink="http://www.w3.org/1999/xlink" width="256" height="256" viewBox="0 0 256 256">
  <metadata><?xpacket begin="﻿" id="W5M0MpCehiHzreSzNTczkc9d"?>
<x:xmpmeta xmlns:x="adobe:ns:meta/" x:xmptk="Adobe XMP Core 5.6-c142 79.160924, 2017/07/13-01:06:39        ">
   <rdf:RDF xmlns:rdf="http://www.w3.org/1999/02/22-rdf-syntax-ns#">
      <rdf:Description rdf:about=""/>
   </rdf:RDF>
</x:xmpmeta>
                                                                                                    
                                                                                                    
                                                                                                    
                                                                                                    
                                                                                                    
                                                                                                    
                                                                                                    
                                                                                                    
                                                                                                    
                                                                                                    
                                                                                                    
                                                                                                    
                                                                                                    
                                                                                                    
                                                                                                    
                                                                                                    
                                                                                                    
                                                                                                    
                                                                                                    
                                                                                                    
                           
<?xpacket end="w"?></metadata>
<defs>
    <style>
      .cls-1, .cls-3, .cls-6 {
        fill: #0096ff;
      }

      .cls-1, .cls-2, .cls-3, .cls-4, .cls-5, .cls-6, .cls-7, .cls-8 {
        fill-rule: evenodd;
      }

      .cls-2, .cls-4, .cls-5, .cls-7, .cls-8 {
        fill: #a5daff;
      }

      .cls-3 {
        filter: url(#filter);
      }

      .cls-4 {
        filter: url(#filter-2);
      }

      .cls-5 {
        filter: url(#filter-3);
      }

      .cls-6 {
        filter: url(#filter-4);
      }

      .cls-7 {
        filter: url(#filter-5);
      }

      .cls-8 {
        filter: url(#filter-6);
      }
    </style>
    <filter id="filter" x="62.531" y="45.656" width="136.688" height="178.969" filterUnits="userSpaceOnUse">
      <feFlood result="flood" flood-color="#ff5f5f"/>
      <feComposite result="composite" operator="in" in2="SourceGraphic"/>
      <feBlend result="blend" in2="SourceGraphic"/>
    </filter>
    <filter id="filter-2" x="77.594" y="61.719" width="93.406" height="21.688" filterUnits="userSpaceOnUse">
      <feFlood result="flood" flood-color="#ffc4c4"/>
      <feComposite result="composite" operator="in" in2="SourceGraphic"/>
      <feBlend result="blend" in2="SourceGraphic"/>
    </filter>
    <filter id="filter-3" x="80" y="94.281" width="24.188" height="119.344" filterUnits="userSpaceOnUse">
      <feFlood result="flood" flood-color="#ffc4c4"/>
      <feComposite result="composite" operator="in" in2="SourceGraphic"/>
      <feBlend result="blend" in2="SourceGraphic"/>
    </filter>
    <filter id="filter-4" x="112.063" y="51.75" width="138.812" height="180.375" filterUnits="userSpaceOnUse">
      <feFlood result="flood" flood-color="#fff06e"/>
      <feComposite result="composite" operator="in" in2="SourceGraphic"/>
      <feBlend result="blend" in2="SourceGraphic"/>
    </filter>
    <filter id="filter-5" x="141.125" y="67.906" width="93.5" height="22.75" filterUnits="userSpaceOnUse">
      <feFlood result="flood" flood-color="#fffedd"/>
      <feComposite result="composite" operator="in" in2="SourceGraphic"/>
      <feBlend result="blend" in2="SourceGraphic"/>
    </filter>
    <filter id="filter-6" x="126.75" y="92.75" width="25.625" height="119.344" filterUnits="userSpaceOnUse">
      <feFlood result="flood" flood-color="#fffedd"/>
      <feComposite result="composite" operator="in" in2="SourceGraphic"/>
      <feBlend result="blend" in2="SourceGraphic"/>
    </filter>
  </defs>
  <path id="圆角矩形_1" data-name="圆角矩形 1" class="cls-1" d="M9.954,69.778l95.893-37.6a10,10,0,0,1,12.96,5.66L173.56,177.49a10,10,0,0,1-5.66,12.96l-95.893,37.6a10,10,0,0,1-12.96-5.659L4.294,82.738A10,10,0,0,1,9.954,69.778Z"/>
  <path id="圆角矩形_2" data-name="圆角矩形 2" class="cls-2" d="M25.67,79.727l74.48-29.2a7,7,0,1,1,5.11,13.034l-74.479,29.2A7,7,0,0,1,25.67,79.727Z"/>
  <path id="圆角矩形_2_拷贝" data-name="圆角矩形 2 拷贝" class="cls-2" d="M34.8,103a7,7,0,0,1,9.072,3.962L82.56,205.65a7,7,0,1,1-13.034,5.11L30.834,112.074A7,7,0,0,1,34.8,103Z"/>
  <path id="圆角矩形_1_拷贝" data-name="圆角矩形 1 拷贝" class="cls-3" d="M71.527,55.6l102.3-9.923a9.984,9.984,0,0,1,10.9,8.977L199.2,203.766a9.981,9.981,0,0,1-8.966,10.9l-102.3,9.923a9.984,9.984,0,0,1-10.9-8.977L62.561,66.505A9.982,9.982,0,0,1,71.527,55.6Z"/>
  <path id="圆角矩形_2_拷贝_2" data-name="圆角矩形 2 拷贝 2" class="cls-4" d="M83.9,69.452l79.453-7.707A6.991,6.991,0,0,1,164.7,75.662L85.251,83.369A6.991,6.991,0,0,1,83.9,69.452Z"/>
  <path id="圆角矩形_2_拷贝_3" data-name="圆角矩形 2 拷贝 3" class="cls-5" d="M86.312,94.3a6.989,6.989,0,0,1,7.628,6.284L104.17,205.96a6.985,6.985,0,1,1-13.9,1.348L80.036,101.937A6.987,6.987,0,0,1,86.312,94.3Z"/>
  <path id="圆角矩形_1_拷贝_2" data-name="圆角矩形 1 拷贝 2" class="cls-6" d="M139.6,51.807L241.976,63.1a10,10,0,0,1,8.843,11.036l-16.451,149.1a10,10,0,0,1-11.036,8.843l-102.379-11.3a10,10,0,0,1-8.843-11.036l16.45-149.1A10,10,0,0,1,139.6,51.807Z"/>
  <path id="圆角矩形_2_拷贝_4" data-name="圆角矩形 2 拷贝 4" class="cls-7" d="M148.885,67.923L228.4,76.7a7,7,0,1,1-1.536,13.915L147.35,81.838A7,7,0,0,1,148.885,67.923Z"/>
  <path id="圆角矩形_2_拷贝_5" data-name="圆角矩形 2 拷贝 5" class="cls-8" d="M146.144,92.772a7,7,0,0,1,6.19,7.725L140.709,205.858a7,7,0,0,1-13.916-1.536l11.625-105.36A7,7,0,0,1,146.144,92.772Z"/>
</svg>
